<svg width="30" height="18" viewBox="0 0 30 18" fill="none" xmlns="http://www.w3.org/2000/svg">
<path d="M30 16.9511C28.9088 17.2287 28.234 16.9631 27.6286 16.0538C26.2694 14.0174 24.7691 12.0743 23.3213 10.0954C23.1347 9.83936 22.9409 9.5881 22.6992 9.26985C20.9858 11.5814 19.2749 13.7829 17.6693 16.0729C17.095 16.8913 16.4919 17.2478 15.4199 16.9583L21.8617 8.31268L15.865 0.504592C16.8964 0.303587 17.6094 0.406482 18.2412 1.33015C19.6362 3.36891 21.1749 5.30957 22.7087 7.36269C24.2522 5.31675 25.7717 3.3737 27.2074 1.35408C27.7841 0.535699 28.4039 0.22462 29.44 0.526128C28.6551 1.56705 27.887 2.59122 27.1141 3.60821C26.0708 4.97935 25.0466 6.36724 23.965 7.70967C23.5798 8.18825 23.642 8.49933 23.9866 8.95159C25.987 11.5814 27.9636 14.2375 30 16.9511Z" fill="white"/>
<path d="M0.00717877 8.1692C0.179469 7.30536 0.294329 6.42476 0.533621 5.57767C1.96937 0.449649 7.85595 -1.68244 11.9 1.49535C14.269 3.35944 14.8576 5.98686 14.7404 8.94929H1.38789C1.18689 14.264 5.01316 17.4729 9.88993 15.8361C11.6009 15.2618 12.6083 13.9218 13.1132 12.2467C13.3692 11.4068 13.7928 11.2752 14.5824 11.5145C14.178 13.6107 13.2615 15.3623 11.3472 16.4583C8.47571 18.0998 4.37665 17.5686 2.22063 15.2881C0.947595 13.9481 0.406796 12.2802 0.167504 10.4784C0.13161 10.1912 0.05743 9.90885 0 9.62409C0.00478583 9.13913 0.00717877 8.65417 0.00717877 8.1692ZM1.41182 7.81266H13.4793C13.4003 3.96963 11.0074 1.23931 7.7363 1.21538C4.14693 1.18667 1.56736 3.85238 1.41182 7.81266Z" fill="white"/>
</svg>
