<svg width="30" height="30" viewBox="0 0 30 30" fill="none" xmlns="http://www.w3.org/2000/svg">
<path d="M1.77344 0L4.18 27.0009L14.9834 30L25.8151 26.9964L28.2263 0H1.77344ZM23.7527 25.278L15.0449 27.6914V27.7051L15.0221 27.6982L14.9992 27.7051V27.6914L6.29154 25.278L4.23367 2.20717H25.8108L23.7527 25.278ZM19.0649 15.5333L18.682 19.8268L14.9925 20.8227L14.9845 20.825L11.2971 19.8313L11.0613 17.1878H7.73635L8.20012 22.3883L14.9845 24.2708H14.988H14.9925L14.9992 24.2685L21.7768 22.3883L22.6863 12.222H10.6169L10.3151 8.8309H22.9755H22.9869L23.2832 5.51959H6.69479L7.58828 15.5333H19.0649V15.5333Z" fill="white"/>
</svg>
