<svg width="30" height="30" viewBox="0 0 30 30" fill="none" xmlns="http://www.w3.org/2000/svg">
<path d="M0 0H30V30H0V0ZM27.5437 22.8469C27.3244 21.4744 26.43 20.3269 23.7891 19.2534C22.8713 18.8241 21.8456 18.5213 21.5428 17.8275C21.4303 17.4169 21.4106 17.1928 21.4838 16.9481C21.6741 16.1372 22.6266 15.8981 23.3784 16.1231C23.8669 16.2741 24.3159 16.6453 24.5991 17.2462C25.8928 16.4016 25.8928 16.4016 26.7919 15.84C26.4553 15.3178 26.2894 15.0881 26.0597 14.8687C25.2731 13.9847 24.2241 13.5356 22.5197 13.575L21.6356 13.6875C20.7909 13.8928 19.9856 14.3419 19.4972 14.9428C18.0759 16.5544 18.4866 19.3669 20.2097 20.5341C21.9141 21.8081 24.4087 22.0866 24.7312 23.2884C25.0294 24.7537 23.6428 25.2225 22.2703 25.0509C21.2597 24.8259 20.6981 24.3188 20.0775 23.3813L17.7919 24.6947C18.0506 25.2956 18.3534 25.5544 18.8025 26.0812C20.9756 28.2741 26.415 28.1616 27.3909 24.8259C27.4247 24.7134 27.6891 23.9419 27.4837 22.7653L27.5437 22.8469ZM16.3134 13.7888H13.5056C13.5056 16.2103 13.4906 18.6178 13.4906 21.045C13.4906 22.5834 13.5684 23.9991 13.32 24.4341C12.9047 25.2937 11.8453 25.1859 11.3616 25.035C10.8684 24.7913 10.6144 24.4537 10.3266 23.9653C10.2431 23.8331 10.185 23.7216 10.1653 23.7216L7.88531 25.1278C8.26594 25.9144 8.82281 26.5931 9.54094 27.0225C10.6106 27.6619 12.0459 27.8672 13.5497 27.5306C14.5266 27.2475 15.3713 26.6663 15.81 25.7681C16.4494 24.6056 16.3125 23.1806 16.3078 21.5831C16.3228 19.0144 16.3078 16.4466 16.3078 13.8581L16.3134 13.7888Z" fill="white"/>
</svg>
