<svg width="30" height="30" viewBox="0 0 30 30" fill="none" xmlns="http://www.w3.org/2000/svg">
<path d="M27.4095 22.9235C25.801 22.8797 24.5726 23.0295 23.5224 23.4722C23.2241 23.5981 22.7478 23.6016 22.6991 23.9754C22.8631 24.1472 22.8887 24.4041 23.019 24.6155C23.2698 25.0209 23.693 25.5652 24.0709 25.8502C24.4838 26.1619 24.9092 26.4949 25.3517 26.7647C26.1387 27.2445 27.0174 27.5187 27.7751 27.9994C28.2219 28.283 28.6655 28.6399 29.1012 28.9596C29.3169 29.1178 29.4615 29.3637 29.7416 29.4628V29.4173C29.5944 29.2298 29.5564 28.9725 29.4214 28.7768L28.8268 28.1822C28.2455 27.4106 27.5075 26.7328 26.723 26.1701C26.0975 25.721 24.6976 25.1145 24.4367 24.3867L24.391 24.341C24.8344 24.2909 25.3536 24.1306 25.763 24.0206C26.4507 23.8364 27.0652 23.884 27.7751 23.7007L28.7354 23.4263V23.2434C28.3766 22.8752 28.1206 22.3877 27.7294 22.0545C26.7052 21.1826 25.5877 20.3114 24.4369 19.5848C23.7985 19.1822 23.0098 18.9204 22.3332 18.5789C22.1056 18.4638 21.7058 18.4041 21.5555 18.2128C21.2 17.76 21.0066 17.1858 20.7326 16.6582C20.1587 15.5527 19.595 14.3454 19.0864 13.1822C18.7395 12.3891 18.5129 11.6072 18.0802 10.8956C16.0037 7.48149 13.7687 5.4211 10.3062 3.39563C9.56936 2.96485 8.68225 2.79493 7.74475 2.57227C7.24202 2.54204 6.73882 2.51133 6.23585 2.48063C5.92858 2.35266 5.60936 1.97696 5.32132 1.79462C4.17429 1.06993 1.23194 -0.506244 0.382567 1.5661C-0.153918 2.87415 1.18436 4.15008 1.66272 4.81313C1.99882 5.27766 2.4289 5.79915 2.6689 6.32204C2.82686 6.66587 2.85405 7.01063 2.98929 7.37415C3.3214 8.26993 3.61085 9.24446 4.04093 10.072C4.25819 10.4911 4.49772 10.9322 4.77265 11.3067C4.94093 11.5366 5.22991 11.6379 5.27538 11.9927C4.99319 12.3879 4.97702 13.0015 4.81835 13.5021C4.1035 15.7556 4.37327 18.5569 5.41296 20.2247C5.73171 20.737 6.48335 21.8351 7.51647 21.4137C8.42022 21.0457 8.21843 19.9048 8.47694 18.8984C8.5353 18.6703 8.49944 18.5025 8.61405 18.3497V18.3954L9.43741 20.0416C10.0468 21.023 11.1277 22.0484 12.0441 22.7402C12.5192 23.0991 12.8933 23.7192 13.5076 23.9292V23.8833H13.4619C13.3428 23.6979 13.1565 23.621 13.0046 23.472C12.6467 23.1211 12.2487 22.6849 11.953 22.283C11.1195 21.1516 10.3831 19.9134 9.7121 18.6246C9.39147 18.0089 9.1128 17.3302 8.8428 16.7037C8.73874 16.4623 8.74015 16.0969 8.52311 15.972C8.2271 16.4309 7.7914 16.8021 7.56265 17.344C7.19679 18.2102 7.14968 19.2668 7.01397 20.3623C6.93382 20.3909 6.96944 20.3712 6.92233 20.4077C6.2853 20.2542 6.06171 19.5987 5.82475 19.0359C5.22616 17.6133 5.11483 15.323 5.64171 13.6854C5.77811 13.2614 6.39405 11.9274 6.14468 11.5357C6.02561 11.1452 5.6328 10.9193 5.41319 10.6209C5.14108 10.252 4.86968 9.76641 4.681 9.34032C4.19116 8.23149 3.96241 6.98626 3.44655 5.86501C3.19975 5.32899 2.7828 4.78641 2.44038 4.31016C2.0614 3.78211 1.63671 3.39329 1.3428 2.75508C1.23827 2.52821 1.09647 2.16493 1.25116 1.93172C1.30038 1.77446 1.37022 1.70883 1.52561 1.65751C1.79093 1.4529 2.52968 1.72547 2.80577 1.84008C3.53913 2.14477 4.15132 2.43493 4.77265 2.84649C5.07054 3.0443 5.37241 3.42657 5.73288 3.53251H6.14444C6.78827 3.6804 7.50944 3.57821 8.11108 3.76102C9.17421 4.08399 10.1269 4.58672 10.992 5.13305C13.6278 6.79758 15.7831 9.16665 17.2573 11.993C17.4945 12.4481 17.5972 12.8822 17.806 13.365C18.2274 14.3384 18.7583 15.3399 19.1776 16.2919C19.5962 17.2416 20.004 18.1999 20.5955 18.9902C20.9066 19.4056 22.1075 19.6284 22.6536 19.8593C23.0361 20.0208 23.663 20.1895 24.0256 20.4077C24.7177 20.8254 25.3885 21.3225 26.038 21.78C26.3621 22.0085 27.3598 22.5103 27.4095 22.9235V22.9235ZM6.96757 5.49985C6.63218 5.49352 6.39499 5.53641 6.14421 5.59102V5.63672H6.18991C6.34999 5.96532 6.63241 6.17719 6.82999 6.46008C6.98233 6.78047 7.13491 7.1004 7.28749 7.42032L7.33296 7.37508C7.61632 7.17516 7.74593 6.85618 7.74429 6.36868C7.63085 6.24938 7.61421 6.09985 7.51577 5.95735C7.38546 5.76727 7.13257 5.65922 6.96757 5.49985Z" fill="white"/>
</svg>
