<svg width="30" height="30" viewBox="0 0 30 30" fill="none" xmlns="http://www.w3.org/2000/svg">
<path d="M23.8687 9.77813V20.1563L15.0421 25.3875L14.9624 25.4602V29.3438L15.0421 29.4188L27.464 22.2375V7.7625L27.3468 7.73438L23.8312 9.69375L23.8499 9.77813" fill="white"/>
<path d="M6.1873 20.2501L15.042 25.3876V29.4188L2.52637 22.2095V7.79072L2.65527 7.77197L6.1498 9.804L6.1873 9.92119V20.2501" fill="white"/>
<path d="M6.1873 9.9188L2.52637 7.79067L15.0139 0.581299L27.4732 7.76255L23.8686 9.77817L15.0139 4.72505L6.1873 9.9188Z" fill="white"/>
<path d="M7.04492 19.6875V15.4453L7.14102 15.5016L10.5465 17.482L10.5746 17.4984V21.607L7.04492 19.6875Z" fill="white"/>
<path d="M19.5161 21.7031V17.5782L19.5396 17.5664L22.8841 15.6094L22.9872 15.5485V19.65L19.5161 21.7031Z" fill="white"/>
<path d="M15.1991 24.2484L15.103 24.15V20.1562L15.2226 20.1141L18.5671 18.1641L18.6702 18.1055V22.1953L15.2015 24.2484" fill="white"/>
<path d="M11.6719 22.3196V18.0868L11.768 18.1407L15.1688 20.1212L15.1969 24.2485L11.6719 22.3196Z" fill="white"/>
<path d="M14.8334 5.37659L11.3623 7.42971L14.8896 9.48284L18.3584 7.45784L14.8334 5.37659Z" fill="white"/>
<path d="M7.04492 14.1469V9.97266H7.14102L10.5465 11.9531L10.5746 12.0305V16.0758L7.04492 14.1469Z" fill="white"/>
<path d="M10.5137 7.92188L7.04492 9.975L10.5723 12.0281L14.041 10.0031L10.5137 7.92188Z" fill="white"/>
<path d="M19.5161 16.1719V12.1172L19.5396 12.0211L22.8841 10.0781L22.9872 10.1016V14.1117L19.5161 16.1719Z" fill="white"/>
<path d="M19.4528 8.01807L15.9888 10.0782L19.5161 12.1313L22.9849 10.1063L19.4528 8.01807Z" fill="white"/>
<path d="M15.1991 18.7148L15.103 18.6164V14.7164L15.1991 14.6672L15.2226 14.5711L18.5671 12.6211L18.6702 12.6445V16.6617L15.2015 18.7148" fill="white"/>
<path d="M11.6719 16.7884V12.6141H11.768L15.1688 14.5946L15.1969 14.6719V18.7149L11.6719 16.7884Z" fill="white"/>
<path d="M15.1406 10.561L11.6719 12.6142L15.1992 14.6673L18.668 12.6423L15.1406 10.561Z" fill="white"/>
</svg>
